<!DOCTYPE svg PUBLIC "-//W3C//DTD SVG 1.1//EN" "http://www.w3.org/Graphics/SVG/1.1/DTD/svg11.dtd">
<!-- Uploaded to: SVG Repo, www.svgrepo.com, Transformed by: SVG Repo Mixer Tools -->
<svg height="64px" width="64px" version="1.1" id="Capa_1" xmlns="http://www.w3.org/2000/svg" xmlns:xlink="http://www.w3.org/1999/xlink" viewBox="0 0 35.219 35.219" xml:space="preserve" fill="#000000">
<g id="SVGRepo_bgCarrier" stroke-width="0"/>
<g id="SVGRepo_tracerCarrier" stroke-linecap="round" stroke-linejoin="round"/>
<g id="SVGRepo_iconCarrier"> <g> <path style="fill:#006737;" d="M17.612,0C11.005,0,5.647,5.321,5.647,11.885c0,3.358,3.295,9.374,3.295,9.374l8.229,13.96 l8.586-13.797c0,0,3.814-5.74,3.814-9.537C29.572,5.321,24.216,0,17.612,0z M17.555,18.431c-3.783,0-6.848-3.065-6.848-6.853 c0-3.783,3.064-6.846,6.848-6.846c3.781,0,6.851,3.063,6.851,6.846C24.406,15.366,21.336,18.431,17.555,18.431z"/> <polygon style="fill:#006737;" points="18.982,7.406 16.277,7.406 16.277,10.487 13.128,10.487 13.128,13.193 16.277,13.193 16.277,16.367 18.982,16.367 18.982,13.193 22.09,13.193 22.09,10.487 18.982,10.487 "/> </g> </g>
</svg>