<svg xmlns="http://www.w3.org/2000/svg" version="1.1" xmlns:xlink="http://www.w3.org/1999/xlink" xmlns:svgjs="http://svgjs.dev/svgjs" width="100%" height="100%" viewBox="0 0 1000 600"><rect width="1000" height="600" x="0" y="0" fill="#00673a"/><g><rect width="333.3333333333333" height="333.3333333333333" rx="13.333333333333334" ry="13.333333333333334" y="240.55813597774502" fill="#ffffff" transform="matrix(0.5725122553404658,0,0,0.5725122553404658,0,66.85879163673476)" x="218.33593749999997"/><path d="M448.25159782467523 482.2248073137929L448.25159782467523 482.2248073137929Q429.22706314753793 482.2248073137929 429.22706314753793 477.95096489022376L429.22706314753793 477.95096489022376L424.7454644950454 392.26636018991906L398.68689749578397 479.01942549611607Q397.82619311881524 481.60153862702236 384.1439614711393 481.60153862702236Q370.4617298234633 481.60153862702236 370.0462173656163 479.2271817250396L370.0462173656163 479.2271817250396L343.1269459893862 391.4056558129503L340.1293204006329 476.67474805540803Q339.92156417170935 479.8801298730848 331.9971480113417 481.06730832407624Q324.1024113122489 482.2248073137929 318.84914666661194 482.2248073137929Q313.62556148224974 482.2248073137929 308.6987709106354 481.60153862702236L308.6987709106354 481.60153862702236Q298.4593567708345 480.0878861020083 298.667112999758 476.2592355975611L298.667112999758 476.2592355975611L303.5939035713723 337.3593568315665Q303.5939035713723 332.2248100310287 329.65247057063374 332.2248100310287L329.65247057063374 332.2248100310287Q337.3394510408031 332.2248100310287 348.4692490188475 333.3823090207453Q359.5693675356172 334.56948747173675 360.84558437043296 337.982625518337L360.84558437043296 337.982625518337L384.79690961918453 405.29564368954976L405.7209298179081 337.7748692894135Q407.6500948007691 332.2248100310287 435.2223143250445 332.2248100310287L435.2223143250445 332.2248100310287Q443.1170510241374 332.2248100310287 454.1281311570827 333.3823090207453Q465.13921129002796 334.56948747173675 465.13921129002796 337.56711306049004L465.13921129002796 337.56711306049004L471.3422186964581 477.7432086613003Q471.3422186964581 480.0878861020083 463.00229007824345 481.15634670790064Q454.66236146002876 482.2248073137929 448.25159782467523 482.2248073137929Z " fill="#00673a" transform="matrix(0.5725122553404658,0,0,0.5725122553404658,0,66.85879163673476)"/><path d="M780.839965753092 480.344023473814L780.839965753092 480.344023473814Q762.2925121039815 480.344023473814 762.2925121039815 476.17735681941167L762.2925121039815 476.17735681941167L757.923299153879 392.6414774356648L732.5182066360649 477.2190234830122Q731.6790862681644 479.7363845867136 718.339965937057 479.7363845867136Q705.0008456059494 479.7363845867136 704.5957530145491 477.4215697787123L704.5957530145491 477.4215697787123L678.3515401288345 391.8023570677643L675.4290864337328 474.93314386011093Q675.2265401380328 478.0581438509127 667.5008457163284 479.21555125491335Q659.8040864797241 480.344023473814 654.6825587170212 480.344023473814Q649.5899661394184 480.344023473814 644.7867254128156 479.7363845867136L644.7867254128156 479.7363845867136Q634.8040865533101 478.2606901466128 635.0066328490102 474.5280512687107L635.0066328490102 474.5280512687107L639.8098735756129 339.11138500063475Q639.8098735756129 334.10559797833196 665.214966093427 334.10559797833196L665.214966093427 334.10559797833196Q672.7091790343313 334.10559797833196 683.5598734468374 335.2340701972326Q694.3816326742434 336.39147760123325 695.6258456335441 339.7190238877351L695.6258456335441 339.7190238877351L718.9765400092573 405.3440236945719L739.3758455047687 339.516477592035Q741.2566325362698 334.10559797833196 768.1374194941849 334.10559797833196L768.1374194941849 334.10559797833196Q775.8341787307892 334.10559797833196 786.5691324028952 335.2340701972326Q797.3040860750012 336.39147760123325 797.3040860750012 339.3139312963349L797.3040860750012 339.3139312963349L803.3515397609045 475.97481052371154Q803.3515397609045 478.2606901466128 795.2207527478 479.3023568102134Q787.0899657346955 480.344023473814 780.839965753092 480.344023473814ZM901.6732987307597 474.5280512687107L901.6732987307597 474.5280512687107Q888.5367246953523 482.224810505315 867.9348729041408 482.224810505315Q847.3040859278292 482.224810505315 833.1258452288213 468.16231054670715Q818.9765397149133 454.0998105880993 818.9765397149133 429.2155514020853Q818.9765397149133 404.30235703097134 832.605011897021 389.1113848534628Q846.2624192642287 373.8914774908543 867.0957525362403 373.8914774908543Q887.929085808252 373.8914774908543 899.2716783674583 384.51069042256023Q910.6432061117647 395.12990335426616 910.6432061117647 410.34981071687474L910.6432061117647 410.34981071687474Q910.6432061117647 444.0882365434936 871.870058077743 444.0882365434936L871.870058077743 444.0882365434936L857.5182062681349 444.0882365434936Q857.5182062681349 450.33823652509716 860.9325581099368 452.7398568883985Q864.3758451368388 455.1414772516998 871.0598728949426 455.1414772516998L871.0598728949426 455.1414772516998Q885.6432061853508 455.1414772516998 898.750845035658 448.48638467869614L898.750845035658 448.48638467869614Q898.9533913313581 448.254903197896 900.6316320671591 451.3799031886977L900.6316320671591 451.3799031886977Q905.6374190894619 460.34981056970275 905.6374190894619 466.4840698109062Q905.6374190894619 472.64726423720964 901.6732987307597 474.5280512687107ZM875.6316321407451 414.31393107557693L875.6316321407451 414.31393107557693Q875.6316321407451 405.546569990272 867.0957525362403 405.546569990272L867.0957525362403 405.546569990272Q863.1316321775381 405.546569990272 860.3249192228365 407.9481903535734Q857.5182062681349 410.34981071687474 857.5182062681349 414.92156996267727L857.5182062681349 414.92156996267727L857.5182062681349 421.4030514250809L868.7450580869412 421.4030514250809Q875.6316321407451 421.4030514250809 875.6316321407451 414.31393107557693ZM976.8758448057018 375.135690450155L976.8758448057018 335.55235723333277Q976.8758448057018 332.42735724253106 993.3399651276111 332.42735724253106L993.3399651276111 332.42735724253106Q998.9533910370143 332.42735724253106 1006.3607984226184 333.15073687003144Q1013.7682058082225 333.9030516826319 1013.7682058082225 335.14726464193257L1013.7682058082225 335.14726464193257L1013.7682058082225 444.9273569113941L1021.0598724534267 444.9273569113941Q1026.2682057714296 444.9273569113941 1027.9175113221304 454.30235688379935L1027.9175113221304 454.30235688379935Q1028.3515390986308 457.0222642832009 1028.3515390986308 461.70976426940354Q1028.3515390986308 466.39726425560616 1025.429085403529 473.05235682860985L1025.429085403529 473.05235682860985Q1021.2624187491268 482.224810505315 1012.0899650724216 482.224810505315L1012.0899650724216 482.224810505315Q1005.2033910186177 482.224810505315 999.9082521453148 479.5049031059135Q994.5841780869118 476.813930891612 992.7033910554107 473.8914771965104L992.7033910554107 473.8914771965104L990.8515392090097 471.1715697971088Q979.3932059094033 482.224810505315 962.0899652195936 482.224810505315Q944.7867245297839 482.224810505315 932.518206047377 467.844023510607Q920.2207523798701 453.46323651589887 920.2207523798701 427.73985696198446Q920.2207523798701 402.01647740807005 933.1258449344773 387.9539774494622Q946.0598726741845 373.8914774908543 965.4175115060955 373.8914774908543L965.4175115060955 373.8914774908543Q971.0598726005986 373.8914774908543 976.8758448057018 375.135690450155L976.8758448057018 375.135690450155ZM970.018205936998 407.224810726073L970.018205936998 407.224810726073Q958.3283911565915 407.224810726073 958.3283911565915 428.26069029378476L958.3283911565915 428.26069029378476Q958.3283911565915 438.8799032254907 961.6848726281934 443.5674032116933Q965.0124189146952 448.254903197896 969.0633448286975 448.254903197896Q973.1432059277997 448.254903197896 976.8758448057018 444.72481061569397L976.8758448057018 444.72481061569397L976.8758448057018 409.30814405327413Q973.3457522235 407.224810726073 970.018205936998 407.224810726073ZM1087.495057443064 429.30235695738537L1087.495057443064 429.30235695738537Q1091.4591778017661 432.42735694818714 1101.1524648102713 437.83823656189014Q1110.845751818777 443.2780513606932 1119.699918459382 443.2780513606932Q1128.5540850999869 443.2780513606932 1128.5540850999869 436.3914773068893L1128.5540850999869 436.3914773068893Q1128.5540850999869 433.26647731608756 1126.0367239962857 430.8648569527862Q1123.5482980776842 428.4632365894849 1116.8932055046803 425.3382365986831Q1110.2091777465766 422.21323660788136 1106.881631460075 420.44819031678037Q1103.5540851735727 418.6831440256794 1098.02746481947 414.6322181116771Q1092.5008444653668 410.5523570125748 1089.5783907702653 406.18314406247237L1089.5783907702653 406.18314406247237Q1081.2450574614604 394.31971817146575 1081.2450574614604 375.97481081805546Q1081.2450574614604 357.62990346464517 1094.9024648286681 345.0430979461381Q1108.5598721958759 332.42735724253106 1130.637418427188 332.42735724253106L1130.637418427188 332.42735724253106Q1145.6258443089964 332.42735724253106 1158.3283905679036 335.6680979737328Q1171.059872011911 338.8799035198346 1171.4649646033108 344.08823683783754L1171.4649646033108 344.08823683783754Q1171.4649646033108 344.72481091003795 1171.4649646033108 345.3613849822383L1171.4649646033108 345.3613849822383Q1171.4649646033108 352.6530516274424 1166.8932053575086 363.7930978909486Q1162.2925109266062 374.93314415445485 1160.4117238951048 376.17735711375553L1160.4117238951048 376.17735711375553Q1147.1015387490975 369.3197182450517 1136.5691313726916 369.3197182450517Q1126.0367239962857 369.3197182450517 1126.0367239962857 376.81393118595594L1126.0367239962857 376.81393118595594Q1126.0367239962857 381.38569043175846 1133.76241841799 384.9447181990605L1133.76241841799 384.9447181990605Q1135.4117239686907 385.7549033818609 1138.5367239594925 387.23059782196174Q1141.6617239502943 388.67735707696255 1145.7415850493967 390.6738848488637Q1149.7925109633989 392.6414774356648 1154.4800109496014 395.65073668606647Q1159.1675109358043 398.6889311215682 1164.5783905495073 403.694718143871L1164.5783905495073 403.694718143871Q1175.6316312577133 414.11138477987686 1175.6316312577133 431.1831439888864L1175.6316312577133 431.1831439888864Q1175.6316312577133 453.46323651589887 1163.3341775902063 467.64147721490684Q1151.0367239226994 481.8197179139148 1125.429085109185 482.224810505315L1125.429085109185 482.224810505315Q1112.9290851459782 482.224810505315 1102.8307055460727 480.14147717811386Q1092.7033907610667 478.0581438509127 1085.2091778201625 472.0106901650093Q1077.7149648792583 465.96323647910594 1077.7149648792583 457.4273568746011Q1077.7149648792583 448.89147727009635 1080.8399648700602 440.4424032208916Q1083.964964860862 432.0222643567869 1087.495057443064 429.30235695738537ZM1226.4707514784418 411.1889310847752L1226.4707514784418 478.69471792311305Q1226.4707514784418 480.5465697695141 1209.080705233332 480.5465697695141Q1191.6617238031222 480.5465697695141 1191.6617238031222 477.6530512595125L1191.6617238031222 477.6530512595125L1191.6617238031222 334.94471834623243Q1191.6617238031222 333.4690239061316 1198.143205265526 332.8613850190313Q1204.5957515428295 332.2248109468309 1208.9649644929323 332.2248109468309L1208.9649644929323 332.2248109468309Q1226.4707514784418 332.2248109468309 1226.4707514784418 335.986385009833L1226.4707514784418 335.986385009833L1226.4707514784418 377.65305155385636Q1238.1316310737484 374.0940237865544 1244.1790847596517 374.0940237865544L1244.1790847596517 374.0940237865544Q1260.0066310093607 374.0940237865544 1269.1790846860658 382.5430978357591Q1278.351538362771 390.96323669986384 1278.351538362771 413.8799032990767L1278.351538362771 413.8799032990767L1278.351538362771 478.4632364423129Q1278.351538362771 480.344023473814 1262.089964336562 480.344023473814L1262.089964336562 480.344023473814Q1243.7450569831517 479.7363845867136 1243.7450569831517 478.2606901466128L1243.7450569831517 478.2606901466128L1243.7450569831517 417.0049032898785Q1243.7450569831517 406.8197181346727 1237.0899644101478 406.8197181346727L1237.0899644101478 406.8197181346727Q1232.518205164345 406.8197181346727 1226.4707514784418 411.1889310847752L1226.4707514784418 411.1889310847752ZM1374.7925103011248 474.5280512687107L1374.7925103011248 474.5280512687107Q1361.6848714508178 482.224810505315 1341.054084474506 482.224810505315Q1320.4232974981946 482.224810505315 1306.2450567991868 468.16231054670715Q1292.0957512852788 454.0998105880993 1292.0957512852788 429.2155514020853Q1292.0957512852788 404.30235703097134 1305.7242234673863 389.1113848534628Q1319.381630834594 373.8914774908543 1340.2149641066057 373.8914774908543Q1361.0482973786175 373.8914774908543 1372.3908899378239 384.51069042256023Q1383.76241768213 395.12990335426616 1383.76241768213 410.34981071687474L1383.76241768213 410.34981071687474Q1383.76241768213 444.0882365434936 1345.0182048332085 444.0882365434936L1345.0182048332085 444.0882365434936L1330.6374178385004 444.0882365434936Q1330.6374178385004 450.33823652509716 1334.0807048654024 452.7398568883985Q1337.4950567072042 455.1414772516998 1344.1790844653078 455.1414772516998L1344.1790844653078 455.1414772516998Q1358.762417755716 455.1414772516998 1371.8700566060234 448.48638467869614L1371.8700566060234 448.48638467869614Q1372.1015380868234 448.254903197896 1373.7508436375247 451.3799031886977L1373.7508436375247 451.3799031886977Q1378.7566306598274 460.34981056970275 1378.7566306598274 466.4840698109062Q1378.7566306598274 472.64726423720964 1374.7925103011248 474.5280512687107ZM1348.7508437111105 414.31393107557693L1348.7508437111105 414.31393107557693Q1348.7508437111105 405.546569990272 1340.2149641066057 405.546569990272L1340.2149641066057 405.546569990272Q1336.2508437479032 405.546569990272 1333.444130793202 407.9481903535734Q1330.6374178385004 410.34981071687474 1330.6374178385004 414.92156996267727L1330.6374178385004 414.92156996267727L1330.6374178385004 421.4030514250809L1341.8932048424067 421.4030514250809Q1348.7508437111105 421.4030514250809 1348.7508437111105 414.31393107557693ZM1435.2091767899587 335.7549035290329L1435.2091767899587 478.4632364423129Q1435.2091767899587 480.344023473814 1413.9707509265472 480.344023473814L1413.9707509265472 480.344023473814Q1397.3040843089375 480.14147717811386 1397.3040843089375 478.69471792311305L1397.3040843089375 478.69471792311305L1397.3040843089375 336.7965701926335Q1397.3040843089375 333.67157020183174 1417.5008435087489 333.67157020183174L1417.5008435087489 333.67157020183174Q1435.2091767899587 334.3081442740321 1435.2091767899587 335.7549035290329L1435.2091767899587 335.7549035290329ZM1462.0899637478742 477.6530512595125L1462.0899637478742 403.694718143871L1451.8758434075685 403.694718143871Q1448.7508434167667 403.694718143871 1448.7508434167667 389.8347644809632Q1448.7508434167667 375.97481081805546 1451.8758434075685 375.97481081805546L1451.8758434075685 375.97481081805546L1462.0899637478742 375.97481081805546L1462.0899637478742 371.4030515722529Q1462.0899637478742 349.29657015584047 1471.349222979879 340.87643129173574Q1480.6374173969843 332.42735724253106 1497.3040840145936 332.42735724253106Q1513.9707506322034 332.42735724253106 1526.67329689111 338.4748109284344L1526.67329689111 338.4748109284344Q1528.351537626911 339.11138500063475 1528.351537626911 342.95976461893696Q1528.351537626911 346.8081442372391 1524.7925098596093 355.3440238417439Q1521.2624172774072 363.87990344624865 1518.7450561737055 365.1530515906494L1518.7450561737055 365.1530515906494Q1511.6848710093018 360.75490345544694 1504.161722883298 360.75490345544694L1504.161722883298 360.75490345544694Q1496.0598710552931 360.75490345544694 1496.0598710552931 371.605597867953L1496.0598710552931 371.605597867953L1496.0598710552931 375.97481081805546L1513.3341765600026 375.97481081805546Q1517.0957506230047 375.97481081805546 1517.0957506230047 389.31393114916295L1517.0957506230047 389.31393114916295Q1517.0957506230047 403.89726443957113 1512.2925098964024 403.89726443957113L1512.2925098964024 403.89726443957113L1498.9533895652944 403.89726443957113L1498.9533895652944 477.6530512595125Q1498.9533895652944 480.14147717811386 1480.521676656584 480.14147717811386Q1462.0899637478742 480.14147717811386 1462.0899637478742 477.6530512595125L1462.0899637478742 477.6530512595125Z " fill="#ffffff" transform="matrix(0.5725122553404658,0,0,0.5725122553404658,0,66.85879163673476)"/></g></svg>